<svg version="1.2" xmlns="http://www.w3.org/2000/svg" xmlns:xlink="http://www.w3.org/1999/xlink" overflow="visible" preserveAspectRatio="none" viewBox="0 0 24 24" width="25" height="25"><g><path xmlns:default="http://www.w3.org/2000/svg" id="money" d="M10,14.67v-1h1.33v-3l0,0c-0.17,0.22-0.36,0.42-0.57,0.59l-0.8-0.83L11.48,9h1.19v4.66H14v1h-4V14.67z   M15.11,10.53c-0.14-0.49-0.35-0.96-0.62-1.4c-0.27-0.43-0.63-0.79-1.06-1.05c-0.88-0.54-1.99-0.54-2.87,0  C10.13,8.34,9.77,8.7,9.51,9.13c-0.27,0.44-0.48,0.91-0.62,1.4c-0.3,0.98-0.3,2.02,0,3c0.14,0.49,0.35,0.96,0.62,1.4  c0.27,0.43,0.63,0.79,1.06,1.05c0.88,0.54,1.99,0.54,2.87,0c0.43-0.26,0.79-0.62,1.06-1.05c0.27-0.44,0.48-0.91,0.62-1.4  c0.3-0.98,0.3-2.03-0.01-3.01L15.11,10.53z M20.66,14.67c-1.47,0.01-2.65,1.19-2.66,2.66H6c0.01-0.71-0.27-1.39-0.78-1.88  c-0.49-0.51-1.17-0.79-1.88-0.78V9.33c0.71,0.01,1.39-0.27,1.88-0.78C5.73,8.06,6.01,7.38,6,6.67h12c0,1.47,1.2,2.67,2.67,2.67v5.33  l0,0H20.66z M21.8,5.53c-0.12-0.13-0.29-0.2-0.47-0.2H2.67C2.3,5.34,2.01,5.63,2,6v12c0.01,0.37,0.3,0.66,0.67,0.67h18.66  c0.37-0.01,0.66-0.3,0.67-0.67V6C22,5.82,21.93,5.65,21.8,5.53z" style="fill: rgb(255, 255, 255);" vector-effect="non-scaling-stroke"/></g></svg>