<svg version="1.2" xmlns="http://www.w3.org/2000/svg" xmlns:xlink="http://www.w3.org/1999/xlink" overflow="visible" preserveAspectRatio="none" viewBox="0 0 24 24" width="30" height="30"><g><path xmlns:default="http://www.w3.org/2000/svg" id="cubes" d="M8.3,19.4l3.2-1.9v-3.2L8.3,16V19.4z M7.8,14.8l3.3-1.7l-3.3-1.7l-3.3,1.7L7.8,14.8z M16.8,19.4l3.2-1.9v-3.2L16.8,16V19.4z M16.2,14.8l3.3-1.7l-3.3-1.7l-3.3,1.7L16.2,14.8z M12.5,11.9l3.2-1.7V7.6l-3.2,1.6V11.9L12.5,11.9z M12,8.1l3.6-1.9L12,4.3L8.4,6.2 L12,8.1z M21,13.3v4.2c0,0.2-0.1,0.5-0.2,0.7s-0.2,0.4-0.4,0.5l-3.7,2.2C16.6,21,16.4,21,16.2,21c-0.2,0-0.3,0-0.5-0.1l-3.7-2.2 c0,0,0,0-0.1,0c0,0,0,0-0.1,0l-3.7,2.2C8.1,21,7.9,21,7.8,21c-0.2,0-0.3,0-0.5-0.1l-3.7-2.2c-0.2-0.1-0.3-0.3-0.4-0.5S3,17.7,3,17.5 v-4.2c0-0.3,0.1-0.5,0.2-0.7c0.1-0.2,0.3-0.4,0.5-0.5l3.6-1.9v-4c0-0.3,0.1-0.5,0.2-0.7C7.5,5.3,7.7,5.1,7.9,5l3.7-1.9 C11.7,3,11.9,3,12,3c0.1,0,0.3,0,0.4,0.1L16.1,5c0.2,0.1,0.3,0.3,0.5,0.5c0.1,0.2,0.2,0.4,0.2,0.7v4l3.6,1.9 c0.2,0.1,0.4,0.3,0.5,0.5C20.9,12.8,21,13,21,13.3L21,13.3z" style="fill: rgb(255, 252, 252);" vector-effect="non-scaling-stroke"/></g></svg>