<svg version="1.2" xmlns="http://www.w3.org/2000/svg" xmlns:xlink="http://www.w3.org/1999/xlink" overflow="visible" preserveAspectRatio="none" viewBox="0 0 24 24" width="25" height="25"><g><path xmlns:default="http://www.w3.org/2000/svg" id="gamepad" d="M10.67,12.66c0.01,0.18-0.13,0.32-0.31,0.33c-0.01,0-0.01,0-0.02,0h-2v2c0.01,0.18-0.13,0.32-0.31,0.33  c-0.01,0-0.01,0-0.02,0H6.67c-0.18,0.01-0.32-0.13-0.33-0.31c0-0.01,0-0.01,0-0.02v-2h-2C4.16,13,4.01,12.87,4,12.69  c0-0.01,0-0.02,0-0.03v-1.34C3.99,11.15,4.13,11,4.31,10.99c0.01,0,0.02,0,0.03,0h2v-2C6.33,8.82,6.47,8.67,6.65,8.66  c0.01,0,0.01,0,0.02,0H8c0.18-0.01,0.33,0.12,0.34,0.3c0,0.01,0,0.02,0,0.03v2h2c0.18-0.01,0.32,0.13,0.33,0.31  c0,0.01,0,0.01,0,0.02v1.33l0,0V12.66z M16.67,13.33c0,0.73-0.59,1.33-1.33,1.33c-0.73,0-1.33-0.59-1.33-1.33  c0-0.73,0.59-1.33,1.33-1.33c0.35,0,0.69,0.14,0.94,0.39C16.53,12.64,16.68,12.98,16.67,13.33L16.67,13.33z M18.94,11.61  c-0.52,0.52-1.36,0.52-1.88,0s-0.52-1.36,0-1.88c0.52-0.52,1.36-0.52,1.88,0c0.25,0.25,0.39,0.59,0.39,0.94  c0,0.35-0.14,0.69-0.39,0.93V11.61z M20.43,8.23c-0.99-1.02-2.35-1.58-3.77-1.56H7.34C5.92,6.65,4.56,7.21,3.57,8.22  C2.55,9.21,1.98,10.57,2,11.99c-0.02,1.42,0.54,2.78,1.56,3.77c0.99,1.02,2.35,1.58,3.77,1.56c1.3,0.01,2.55-0.46,3.52-1.33h2.29  c2.11,1.86,5.3,1.76,7.29-0.23c1.02-0.99,1.59-2.35,1.57-3.77c0.02-1.42-0.55-2.78-1.57-3.77V8.23z" style="fill: rgb(255, 255, 255);" vector-effect="non-scaling-stroke"/></g></svg>