<svg version="1.2" xmlns="http://www.w3.org/2000/svg" xmlns:xlink="http://www.w3.org/1999/xlink" overflow="visible" preserveAspectRatio="none" viewBox="0 0 24 24" width="25" height="25"><g><path xmlns:default="http://www.w3.org/2000/svg" id="server" d="M4.02,16.62h10.67v1.34H4.02V16.62z M4.02,11.29h10.67v1.33H4.02V11.29z M20.02,17.96  c-0.39,0.39-1.02,0.39-1.41,0.01c-0.39-0.39-0.39-1.02-0.01-1.41c0.39-0.39,1.02-0.39,1.41-0.01c0.19,0.19,0.29,0.44,0.3,0.7  C20.31,17.52,20.21,17.77,20.02,17.96z M4.02,5.96h10.67V7.3H4.02V5.96z M20.02,12.66c-0.41,0.37-1.04,0.34-1.41-0.07  c-0.37-0.41-0.34-1.04,0.07-1.41c0.41-0.37,1.04-0.34,1.41,0.07c0.18,0.19,0.27,0.45,0.26,0.71c-0.01,0.27-0.13,0.53-0.33,0.71  V12.66z M20.02,7.33C19.55,7.62,18.93,7.47,18.64,7c-0.2-0.32-0.2-0.72,0-1.04c0.47-0.3,1.08-0.16,1.38,0.31  c0.21,0.33,0.21,0.74,0,1.07V7.33z M2.65,15.33v4h18.7v-4H2.69H2.65z M2.65,10v4h18.7V9.96H2.69L2.65,10z M2.65,4.67v4h18.7v-4H2.69  H2.65z" style="fill: rgb(255, 255, 255);" vector-effect="non-scaling-stroke"/></g></svg>